<?xml version="1.0" encoding="utf-8"?>
<!-- Generator: Adobe Illustrator 19.0.0, SVG Export Plug-In . SVG Version: 6.00 Build 0)  -->
<svg version="1.1" id="Layer_1" xmlns="http://www.w3.org/2000/svg" xmlns:xlink="http://www.w3.org/1999/xlink" x="0px" y="0px"
	 viewBox="-261 763 300 300" style="enable-background:new -261 763 300 300;" xml:space="preserve">
<style type="text/css">
	.st0{opacity:0.15;fill:#BFBFBF;enable-background:new    ;}
	.st1{opacity:0.2;fill:#BFBFBF;enable-background:new    ;}
	.st2{opacity:2.000000e-002;fill:#BFBFBF;enable-background:new    ;}
	.st3{opacity:0.6;fill:#BFBFBF;}
	.st4{font-family:'Tahoma';}
	.st5{font-size:50px;}
</style>
<path class="st0" d="M-75.5,944.7c-1.6-1.6-4-1.6-5.4,0c-1.8,1.8-3.7,3.4-5.8,4.9l-3.9-6.7c8.9-6.6,14.8-17.1,14.8-28.9
	c0-19.8-16.1-35.9-35.9-35.9c-13.6,0-25.4,7.6-31.6,18.8l-7.1-2.9c2-3.9,4.7-7.6,7.9-10.8c1.6-1.6,1.6-4,0-5.4c-1.6-1.6-4-1.6-5.4,0
	c-9.7,9.7-15,22.6-15,36.2c0,2.1,1.7,3.8,3.8,3.8s3.8-1.7,3.8-3.8c0-4.4,0.7-8.8,2-13l7.1,2.9c-0.9,3.2-1.4,6.5-1.4,10
	c0,19.8,16.1,35.9,35.9,35.9c5.2,0,10.1-1.1,14.5-3.1l3.9,6.7c-2.3,1.1-4.7,1.9-7.1,2.6c-2,0.6-3.2,2.7-2.8,4.7
	c0.4,1.7,2,2.9,3.7,2.9c0.3,0,0.7-0.1,1-0.1c4.3-1.1,8.5-2.9,12.3-5.1l0,0c0,0,0.1,0,0.1-0.1c3.8-2.2,7.4-5,10.6-8.1
	C-74,948.6-74,946.2-75.5,944.7z M-139.9,914c0-15.5,12.7-28.1,28.1-28.1s28.1,12.7,28.1,28.1c0,15.5-12.7,28.1-28.1,28.1
	S-139.9,929.4-139.9,914z"/>
<path class="st0" d="M-79.4,971.2c-8.9,5.2-19.1,7.9-29.5,7.9c-2.1,0-3.8,1.7-3.8,3.8c0,2.1,1.7,3.8,3.8,3.8
	c11.7,0,23.2-3.1,33.3-8.9c1.9-1.1,2.5-3.4,1.4-5.2C-75.2,970.8-77.6,970.2-79.4,971.2L-79.4,971.2z"/>
<path class="st1" d="M-148.6,856.1c-20.6,11.9-33.3,34-33.3,57.7c0,2.1,1.7,3.8,3.8,3.8s3.8-1.7,3.8-3.8c0-20.9,11.3-40.6,29.4-51.1
	c1.9-1.1,2.5-3.4,1.4-5.2C-144.3,855.7-146.7,855-148.6,856.1z"/>
<path class="st0" d="M-173.2,855.9c-10.2,10.2-17.6,22.9-21.2,36.8c-0.6,2,0.7,4.1,2.8,4.7c0.3,0.1,0.7,0.1,1,0.1
	c1.7,0,3.2-1.1,3.7-2.9c3.4-12.6,10-24.1,19.2-33.3c1.6-1.6,1.6-4,0-5.4C-169.3,854.3-171.7,854.3-173.2,855.9z"/>
<circle class="st0" cx="-130.9" cy="990.9" r="3.8"/>
<circle class="st0" cx="-139.6" cy="839.6" r="3.8"/>
<circle class="st0" cx="-55.4" cy="980.3" r="3.8"/>
<path class="st1" d="M-115.2,862c6.4,0,11.9-4.3,13.6-10.4c2-7.6-2.5-15.3-10-17.3c-1.2-0.3-2.4-0.5-3.7-0.5
	c-6.4,0-11.9,4.3-13.6,10.4c-2,7.6,2.5,15.2,10,17.2C-117.7,861.9-116.4,862-115.2,862z M-121.4,846.3c0.8-2.8,3.3-4.7,6.2-4.7
	c0.6,0,1.1,0.1,1.7,0.2c3.4,0.9,5.4,4.4,4.6,7.9c-0.8,2.8-3.3,4.7-6.2,4.7c-0.6,0-1.1-0.1-1.7-0.2
	C-120.3,853.2-122.3,849.7-121.4,846.3z"/>
<path class="st1" d="M-165.4,971.7c0.1,0.1,0.2,0.1,0.2,0.2c0,0,0,0,0.1,0c0.7,0.6,1.4,1.1,2.2,1.7c1.8,1.3,3.9,2,6.1,2
	c3.2,0,6.3-1.6,8.2-4.1c3.4-4.6,2.4-11-2.1-14.3c-3-2.2-5.7-4.9-7.9-7.9c-1.9-2.6-5-4.1-8.2-4.1c-2.2,0-4.3,0.7-6.1,2
	c-4.6,3.4-5.5,9.8-2.1,14.3C-172.2,965.3-169,968.7-165.4,971.7L-165.4,971.7z M-169.6,951.7c0.8-0.6,1.8-1,2.8-1
	c1.4,0,2.8,0.7,3.8,1.9l-0.7,0.5c-1.3,1-1.4,2.7-0.6,3.9c0.6,0.8,1.4,1.1,2.2,1.1c0.6,0,1.1-0.2,1.7-0.6l1-0.8
	c1.7,1.7,3.5,3.3,5.4,4.7c2,1.6,2.5,4.4,1,6.5c-0.9,1.2-2.3,1.9-3.8,1.9c-1,0-2-0.3-2.8-1l0.6-0.8c1-1.3,0.7-3-0.6-3.9
	c-1.3-1-3-0.7-3.9,0.6l-0.4,0.6c-2.4-2.2-4.7-4.7-6.7-7.3C-172.1,956.1-171.7,953.2-169.6,951.7L-169.6,951.7z"/>
<path class="st1" d="M-59.7,953.1c1.8,0.8,3.7,1.1,5.6,1.1c5.6,0,10.7-3.3,13-8.5c0.5-1.1,1-2.3,1.4-3.5c0,0,0,0,0-0.1
	c0.1-0.1,0.1-0.3,0.1-0.4c2.2-6,3.8-12.2,4.4-18.7c0.4-3.1-0.2-6.1-1.8-8.7c-2.2-3.8-6.2-6.4-10.6-7c-0.6-0.1-1.1-0.1-1.7-0.1
	c-7.1,0-13.1,5.3-14,12.4c-0.6,5.1-1.9,10.1-4,14.8c-1.4,3.4-1.6,7.3-0.1,10.8C-65.8,948.9-63.1,951.7-59.7,953.1L-59.7,953.1z
	 M-49.1,915.1c0.2,0,0.5,0,0.8,0.1c2,0.2,3.8,1.4,4.8,3.2c0.7,1.2,1,2.6,0.8,4c-0.5,4.6-1.4,9-2.8,13.3l-0.9-0.4c-2-0.8-4.2,0.1-5,2
	c-0.8,2,0.1,4.2,2,5l1.3,0.6c-1,2.3-3.3,3.9-5.9,3.9c-0.9,0-1.7-0.2-2.6-0.5c-1.6-0.7-2.8-1.9-3.4-3.5c-0.7-1.6-0.7-3.3,0.1-4.9
	c1.3-3.1,2.3-6.2,3.1-9.4l1.7,0.2c0.1,0,0.3,0,0.4,0c1.9,0,3.6-1.4,3.8-3.4c0.2-2.1-1.3-4-3.4-4.3l-1.1-0.1
	C-55.1,917.6-52.3,915.1-49.1,915.1L-49.1,915.1z"/>
<path class="st0" d="M-61.8,888.2c3.1,0,5.9-1,8.4-2.8c3-2.2,5-5.6,5.6-9.2c0.6-3.7-0.4-7.4-2.6-10.4c-3.8-5.2-8.3-9.8-13.2-13.9
	c-0.1-0.1-0.2-0.2-0.4-0.3c0,0-0.1,0-0.1-0.1c-1-0.8-2-1.6-3-2.3c-2.4-1.9-5.3-2.8-8.4-2.8c-4.4,0-8.7,2.1-11.3,5.7
	c-4.7,6.2-3.3,15.1,2.9,19.7c4.1,3.1,7.8,6.7,10.9,10.9C-70.4,886.1-66.2,888.2-61.8,888.2L-61.8,888.2z M-79.3,865.5
	c-2.8-2.1-3.4-6.1-1.3-8.9c1.2-1.7,3.1-2.6,5.2-2.6c1.4,0,2.7,0.4,3.8,1.3l-0.8,1.1c-1.3,1.7-0.9,4.1,0.8,5.3
	c0.7,0.5,1.4,0.8,2.3,0.8c1.1,0,2.3-0.5,3.1-1.6l0.6-0.8c3.3,3.1,6.4,6.4,9.1,10.1c1,1.3,1.4,3.1,1.2,4.7c-0.2,1.7-1.1,3.2-2.5,4.2
	c-1.1,0.8-2.4,1.3-3.8,1.3c-2,0-3.9-1-5.2-2.6l1-0.7c1.7-1.3,2-3.7,0.8-5.3c-1.3-1.7-3.7-2-5.3-0.8l-1.3,1
	C-74.2,869.7-76.7,867.5-79.3,865.5L-79.3,865.5z"/>
<path class="st1" d="M-111,766.8c19.7,0,38.9,3.9,56.9,11.5c17.4,7.3,33.1,17.9,46.4,31.3c13.4,13.4,23.9,29,31.3,46.4
	c7.6,18,11.5,37.1,11.5,56.9c0,19.7-3.9,38.9-11.5,56.9c-7.3,17.4-17.9,33.1-31.3,46.4c-13.4,13.4-29,23.9-46.4,31.3
	c-18,7.6-37.1,11.5-56.9,11.5s-38.9-3.9-56.9-11.5c-17.4-7.3-33.1-17.9-46.4-31.3c-13.4-13.4-23.9-29-31.3-46.4
	c-7.6-18-11.5-37.1-11.5-56.9s3.9-38.9,11.5-56.9c7.3-17.4,17.9-33.1,31.3-46.4c13.4-13.4,29-23.9,46.4-31.3
	C-149.9,770.7-130.7,766.8-111,766.8 M-111,763c-82.9,0-150,67.1-150,150s67.1,150,150,150S39,995.9,39,913S-28.1,763-111,763
	L-111,763z"/>
<path class="st2" d="M39,912.9c0,81.7-68.3,150-150,150s-150-68.3-150-150c0-79.4,64.7-146.9,144.1-149.8
	C-32.9,760.1,39,828.7,39,912.9z"/>
<text transform="matrix(1 0 0 1 -125.2481 931.2734)" class="st3 st4 st5">0</text>
</svg>
