<?xml version="1.0" encoding="utf-8"?>
<!-- Generator: Adobe Illustrator 19.0.0, SVG Export Plug-In . SVG Version: 6.00 Build 0)  -->
<svg version="1.1" id="Layer_1" xmlns="http://www.w3.org/2000/svg" xmlns:xlink="http://www.w3.org/1999/xlink" x="0px" y="0px"
	 viewBox="-361 363 200 200" style="enable-background:new -361 363 200 200;" xml:space="preserve">
<style type="text/css">
	.st0{opacity:0.15;fill:#BFBFBF;enable-background:new    ;}
	.st1{opacity:0.2;fill:#BFBFBF;enable-background:new    ;}
	.st2{opacity:2.000000e-002;fill:#BFBFBF;enable-background:new    ;}
	.st3{opacity:0.6;fill:#BFBFBF;enable-background:new    ;}
	.st4{font-family:'Tahoma';}
	.st5{font-size:33.3333px;}
</style>
<g>
	<path class="st0" d="M-237.3,484.1c-1.1-1.1-2.7-1.1-3.6,0c-1.2,1.2-2.5,2.3-3.9,3.3l-2.6-4.5c5.9-4.4,9.9-11.4,9.9-19.3
		c0-13.2-10.7-23.9-23.9-23.9c-9.1,0-16.9,5.1-21.1,12.5l-4.7-1.9c1.3-2.6,3.1-5.1,5.3-7.2c1.1-1.1,1.1-2.7,0-3.6
		c-1.1-1.1-2.7-1.1-3.6,0c-6.5,6.5-10,15.1-10,24.1c0,1.4,1.1,2.5,2.5,2.5c1.4,0,2.5-1.1,2.5-2.5c0-2.9,0.5-5.9,1.3-8.7l4.7,1.9
		c-0.6,2.1-0.9,4.3-0.9,6.7c0,13.2,10.7,23.9,23.9,23.9c3.5,0,6.7-0.7,9.7-2.1l2.6,4.5c-1.5,0.7-3.1,1.3-4.7,1.7
		c-1.3,0.4-2.1,1.8-1.9,3.1c0.3,1.1,1.3,1.9,2.5,1.9c0.2,0,0.5-0.1,0.7-0.1c2.9-0.7,5.7-1.9,8.2-3.4l0,0c0,0,0.1,0,0.1-0.1
		c2.5-1.5,4.9-3.3,7.1-5.4C-236.3,486.7-236.3,485.1-237.3,484.1z M-280.3,463.7c0-10.3,8.5-18.7,18.7-18.7s18.7,8.5,18.7,18.7
		c0,10.3-8.5,18.7-18.7,18.7S-280.3,473.9-280.3,463.7z"/>
	<path class="st0" d="M-239.9,501.8c-5.9,3.5-12.7,5.3-19.7,5.3c-1.4,0-2.5,1.1-2.5,2.5c0,1.4,1.1,2.5,2.5,2.5
		c7.8,0,15.5-2.1,22.2-5.9c1.3-0.7,1.7-2.3,0.9-3.5C-237.1,501.5-238.7,501.1-239.9,501.8L-239.9,501.8z"/>
	<path class="st1" d="M-286.1,425.1c-13.7,7.9-22.2,22.7-22.2,38.5c0,1.4,1.1,2.5,2.5,2.5s2.5-1.1,2.5-2.5
		c0-13.9,7.5-27.1,19.6-34.1c1.3-0.7,1.7-2.3,0.9-3.5C-283.2,424.8-284.8,424.3-286.1,425.1z"/>
	<path class="st0" d="M-302.5,424.9c-6.8,6.8-11.7,15.3-14.1,24.5c-0.4,1.3,0.5,2.7,1.9,3.1c0.2,0.1,0.5,0.1,0.7,0.1
		c1.1,0,2.1-0.7,2.5-1.9c2.3-8.4,6.7-16.1,12.8-22.2c1.1-1.1,1.1-2.7,0-3.6C-299.9,423.9-301.5,423.9-302.5,424.9z"/>
	<circle class="st0" cx="-274.3" cy="514.9" r="2.5"/>
	<circle class="st0" cx="-280.1" cy="414.1" r="2.5"/>
	<circle class="st0" cx="-223.9" cy="507.9" r="2.5"/>
	<path class="st1" d="M-263.8,429c4.3,0,7.9-2.9,9.1-6.9c1.3-5.1-1.7-10.2-6.7-11.5c-0.8-0.2-1.6-0.3-2.5-0.3
		c-4.3,0-7.9,2.9-9.1,6.9c-1.3,5.1,1.7,10.1,6.7,11.5C-265.5,428.9-264.6,429-263.8,429z M-267.9,418.5c0.5-1.9,2.2-3.1,4.1-3.1
		c0.4,0,0.7,0.1,1.1,0.1c2.3,0.6,3.6,2.9,3.1,5.3c-0.5,1.9-2.2,3.1-4.1,3.1c-0.4,0-0.7-0.1-1.1-0.1
		C-267.2,423.1-268.5,420.8-267.9,418.5z"/>
	<path class="st1" d="M-297.3,502.1c0.1,0.1,0.1,0.1,0.1,0.1c0,0,0,0,0.1,0c0.5,0.4,0.9,0.7,1.5,1.1c1.2,0.9,2.6,1.3,4.1,1.3
		c2.1,0,4.2-1.1,5.5-2.7c2.3-3.1,1.6-7.3-1.4-9.5c-2-1.5-3.8-3.3-5.3-5.3c-1.3-1.7-3.3-2.7-5.5-2.7c-1.5,0-2.9,0.5-4.1,1.3
		c-3.1,2.3-3.7,6.5-1.4,9.5C-301.8,497.9-299.7,500.1-297.3,502.1L-297.3,502.1z M-300.1,488.8c0.5-0.4,1.2-0.7,1.9-0.7
		c0.9,0,1.9,0.5,2.5,1.3l-0.5,0.3c-0.9,0.7-0.9,1.8-0.4,2.6c0.4,0.5,0.9,0.7,1.5,0.7c0.4,0,0.7-0.1,1.1-0.4l0.7-0.5
		c1.1,1.1,2.3,2.2,3.6,3.1c1.3,1.1,1.7,2.9,0.7,4.3c-0.6,0.8-1.5,1.3-2.5,1.3c-0.7,0-1.3-0.2-1.9-0.7l0.4-0.5c0.7-0.9,0.5-2-0.4-2.6
		c-0.9-0.7-2-0.5-2.6,0.4l-0.3,0.4c-1.6-1.5-3.1-3.1-4.5-4.9C-301.7,491.7-301.5,489.8-300.1,488.8L-300.1,488.8z"/>
	<path class="st1" d="M-226.8,489.7c1.2,0.5,2.5,0.7,3.7,0.7c3.7,0,7.1-2.2,8.7-5.7c0.3-0.7,0.7-1.5,0.9-2.3c0,0,0,0,0-0.1
		c0.1-0.1,0.1-0.2,0.1-0.3c1.5-4,2.5-8.1,2.9-12.5c0.3-2.1-0.1-4.1-1.2-5.8c-1.5-2.5-4.1-4.3-7.1-4.7c-0.4-0.1-0.7-0.1-1.1-0.1
		c-4.7,0-8.7,3.5-9.3,8.3c-0.4,3.4-1.3,6.7-2.7,9.9c-0.9,2.3-1.1,4.9-0.1,7.2C-230.9,486.9-229.1,488.8-226.8,489.7L-226.8,489.7z
		 M-219.7,464.4c0.1,0,0.3,0,0.5,0.1c1.3,0.1,2.5,0.9,3.2,2.1c0.5,0.8,0.7,1.7,0.5,2.7c-0.3,3.1-0.9,6-1.9,8.9l-0.6-0.3
		c-1.3-0.5-2.8,0.1-3.3,1.3c-0.5,1.3,0.1,2.8,1.3,3.3l0.9,0.4c-0.7,1.5-2.2,2.6-3.9,2.6c-0.6,0-1.1-0.1-1.7-0.3
		c-1.1-0.5-1.9-1.3-2.3-2.3c-0.5-1.1-0.5-2.2,0.1-3.3c0.9-2.1,1.5-4.1,2.1-6.3l1.1,0.1c0.1,0,0.2,0,0.3,0c1.3,0,2.4-0.9,2.5-2.3
		c0.1-1.4-0.9-2.7-2.3-2.9l-0.7-0.1C-223.7,466.1-221.9,464.4-219.7,464.4L-219.7,464.4z"/>
	<path class="st0" d="M-228.2,446.5c2.1,0,3.9-0.7,5.6-1.9c2-1.5,3.3-3.7,3.7-6.1c0.4-2.5-0.3-4.9-1.7-6.9c-2.5-3.5-5.5-6.5-8.8-9.3
		c-0.1-0.1-0.1-0.1-0.3-0.2c0,0-0.1,0-0.1-0.1c-0.7-0.5-1.3-1.1-2-1.5c-1.6-1.3-3.5-1.9-5.6-1.9c-2.9,0-5.8,1.4-7.5,3.8
		c-3.1,4.1-2.2,10.1,1.9,13.1c2.7,2.1,5.2,4.5,7.3,7.3C-233.9,445.1-231.1,446.5-228.2,446.5L-228.2,446.5z M-239.9,431.3
		c-1.9-1.4-2.3-4.1-0.9-5.9c0.8-1.1,2.1-1.7,3.5-1.7c0.9,0,1.8,0.3,2.5,0.9l-0.5,0.7c-0.9,1.1-0.6,2.7,0.5,3.5
		c0.5,0.3,0.9,0.5,1.5,0.5c0.7,0,1.5-0.3,2.1-1.1l0.4-0.5c2.2,2.1,4.3,4.3,6.1,6.7c0.7,0.9,0.9,2.1,0.8,3.1
		c-0.1,1.1-0.7,2.1-1.7,2.8c-0.7,0.5-1.6,0.9-2.5,0.9c-1.3,0-2.6-0.7-3.5-1.7l0.7-0.5c1.1-0.9,1.3-2.5,0.5-3.5
		c-0.9-1.1-2.5-1.3-3.5-0.5l-0.9,0.7C-236.5,434.1-238.1,432.7-239.9,431.3L-239.9,431.3z"/>
	<path class="st1" d="M-261,365.5c13.1,0,25.9,2.6,37.9,7.7c11.6,4.9,22.1,11.9,30.9,20.9c8.9,8.9,15.9,19.3,20.9,30.9
		c5.1,12,7.7,24.7,7.7,37.9c0,13.1-2.6,25.9-7.7,37.9c-4.9,11.6-11.9,22.1-20.9,30.9c-8.9,8.9-19.3,15.9-30.9,20.9
		c-12,5.1-24.7,7.7-37.9,7.7c-13.2,0-25.9-2.6-37.9-7.7c-11.6-4.9-22.1-11.9-30.9-20.9c-8.9-8.9-15.9-19.3-20.9-30.9
		c-5.1-12-7.7-24.7-7.7-37.9c0-13.2,2.6-25.9,7.7-37.9c4.9-11.6,11.9-22.1,20.9-30.9c8.9-8.9,19.3-15.9,30.9-20.9
		C-286.9,368.1-274.1,365.5-261,365.5 M-261,363c-55.3,0-100,44.7-100,100s44.7,100,100,100s100-44.7,100-100S-205.7,363-261,363
		L-261,363z"/>
	<path class="st2" d="M-161,462.9c0,54.5-45.5,100-100,100s-100-45.5-100-100c0-52.9,43.1-97.9,96.1-99.9
		C-208.9,361.1-161,406.8-161,462.9z"/>
	<text transform="matrix(1 0 0 1 -270.4989 475.1827)" class="st3 st4 st5">0</text>
</g>
</svg>
