<?xml version="1.0" encoding="utf-8"?>
<!-- Generator: Adobe Illustrator 19.0.0, SVG Export Plug-In . SVG Version: 6.00 Build 0)  -->
<svg version="1.1" id="Layer_1" xmlns="http://www.w3.org/2000/svg" xmlns:xlink="http://www.w3.org/1999/xlink" x="0px" y="0px"
	 viewBox="-276 278 470 470" style="enable-background:new -276 278 470 470;" xml:space="preserve">
<style type="text/css">
	.st0{opacity:0.15;fill:#BFBFBF;enable-background:new    ;}
	.st1{opacity:0.2;fill:#BFBFBF;enable-background:new    ;}
	.st2{opacity:0.25;}
	.st3{fill:#BFBFBF;}
</style>
<path class="st0" d="M14.6,562.7c-2.4-2.4-6.2-2.4-8.5,0c-2.8,2.8-5.8,5.3-9.1,7.6l-6.1-10.5C4.9,549.5,14,533,14,514.5
	c0-31-25.2-56.2-56.2-56.2c-21.3,0-39.8,11.9-49.4,29.4l-11.2-4.6c3.2-6.1,7.3-11.8,12.4-16.9c2.4-2.4,2.4-6.2,0-8.5
	c-2.4-2.4-6.2-2.4-8.5,0c-15.2,15.2-23.5,35.3-23.5,56.8c0,3.3,2.7,6,6,6s6-2.7,6-6c0-7,1-13.8,3.1-20.3l11.2,4.6
	c-1.4,5-2.2,10.2-2.2,15.6c0,31,25.2,56.2,56.2,56.2c8.1,0,15.8-1.7,22.7-4.8l6.1,10.5c-3.6,1.7-7.3,3-11.1,4
	c-3.2,0.9-5.1,4.2-4.3,7.4c0.7,2.7,3.2,4.5,5.8,4.5c0.5,0,1-0.1,1.6-0.2c6.8-1.8,13.3-4.5,19.3-8l0,0c0,0,0.1,0,0.1-0.1
	c6-3.5,11.6-7.8,16.5-12.7C17,568.8,17,565,14.6,562.7z M-86.3,514.5c0-24.3,19.8-44.1,44.1-44.1s44.1,19.8,44.1,44.1
	c0,24.3-19.8,44.1-44.1,44.1S-86.3,538.8-86.3,514.5z"/>
<path class="st0" d="M8.5,604.2c-14,8.1-29.9,12.3-46.2,12.3c-3.3,0-6,2.7-6,6s2.7,6,6,6c18.3,0,36.4-4.8,52.2-14
	c2.9-1.7,3.9-5.3,2.2-8.2C15.1,603.6,11.4,602.6,8.5,604.2L8.5,604.2z"/>
<path class="st1" d="M-99.8,423.9c-32.2,18.6-52.2,53.2-52.2,90.4c0,3.3,2.7,6,6,6s6-2.7,6-6c0-32.8,17.7-63.5,46.1-80
	c2.9-1.7,3.9-5.3,2.2-8.2C-93.2,423.2-96.9,422.2-99.8,423.9z"/>
<path class="st0" d="M-138.4,423.5c-16,16-27.5,35.9-33.3,57.6c-0.9,3.2,1,6.5,4.3,7.4c0.5,0.1,1,0.2,1.6,0.2c2.7,0,5.1-1.8,5.8-4.5
	c5.3-19.7,15.7-37.7,30.1-52.2c2.4-2.4,2.4-6.2,0-8.5C-132.3,421.1-136.1,421.1-138.4,423.5z"/>
<circle class="st0" cx="-72.1" cy="635.1" r="6"/>
<circle class="st0" cx="-85.7" cy="397.9" r="6"/>
<circle class="st0" cx="46.1" cy="618.5" r="6"/>
<path class="st1" d="M-47.6,433.1c10,0,18.7-6.7,21.3-16.4c3.2-11.8-3.9-23.9-15.6-27c-1.9-0.5-3.8-0.8-5.7-0.8
	c-10,0-18.7,6.7-21.3,16.4c-3.1,11.8,3.9,23.9,15.6,27C-51.5,432.9-49.5,433.1-47.6,433.1z M-57.3,408.5c1.2-4.4,5.2-7.4,9.7-7.4
	c0.9,0,1.8,0.1,2.6,0.3c5.3,1.4,8.5,6.9,7.1,12.3c-1.2,4.4-5.2,7.4-9.7,7.4c-0.9,0-1.8-0.1-2.6-0.3
	C-55.6,419.3-58.8,413.8-57.3,408.5z"/>
<path class="st1" d="M-126.3,604.9c0.1,0.1,0.3,0.2,0.4,0.4c0,0,0,0,0.1,0c1.1,0.9,2.3,1.8,3.4,2.7c2.8,2.1,6.1,3.2,9.6,3.2
	c5,0,9.9-2.4,12.9-6.5c5.3-7.1,3.8-17.2-3.3-22.5c-4.7-3.5-8.9-7.7-12.4-12.4c-3-4.1-7.9-6.5-12.9-6.5c-3.5,0-6.8,1.1-9.6,3.2
	c-7.1,5.3-8.6,15.4-3.3,22.5C-136.9,594.9-131.9,600.3-126.3,604.9L-126.3,604.9z M-132.8,573.6c1.2-0.9,2.8-1.5,4.4-1.5
	c2.3,0,4.4,1.1,5.9,2.9l-1.1,0.8c-2,1.5-2.3,4.2-0.9,6.1c0.9,1.2,2.2,1.7,3.5,1.7c0.9,0,1.8-0.3,2.6-0.9l1.5-1.2
	c2.6,2.7,5.5,5.2,8.5,7.4c3.2,2.4,3.9,7,1.5,10.2c-1.4,1.9-3.6,2.9-5.9,2.9c-1.6,0-3.1-0.5-4.4-1.5l0.9-1.2c1.5-2,1-4.7-0.9-6.1
	c-2-1.5-4.7-1-6.1,0.9l-0.7,0.9c-3.8-3.5-7.3-7.4-10.4-11.5C-136.7,580.6-136.1,576-132.8,573.6L-132.8,573.6z"/>
<path class="st1" d="M39.4,575.9c2.8,1.2,5.7,1.8,8.7,1.8c8.8,0,16.8-5.2,20.3-13.3c0.8-1.8,1.5-3.7,2.2-5.5c0,0,0,0,0-0.1
	c0.1-0.2,0.2-0.5,0.2-0.7c3.5-9.4,5.9-19.2,7-29.2c0.6-4.8-0.4-9.5-2.8-13.6c-3.5-6-9.7-10.1-16.6-10.9c-0.9-0.1-1.7-0.2-2.6-0.2
	c-11.2,0-20.6,8.4-21.9,19.5c-0.9,8-3,15.8-6.2,23.2c-2.3,5.4-2.4,11.4-0.2,16.9C29.8,569.3,34,573.6,39.4,575.9L39.4,575.9z
	 M56,516.3c0.4,0,0.8,0,1.2,0.1c3.2,0.4,5.9,2.2,7.5,5c1.1,1.9,1.5,4,1.3,6.2c-0.8,7.1-2.3,14.1-4.4,20.9l-1.4-0.6
	c-3.1-1.3-6.6,0.1-7.9,3.1c-1.3,3.1,0.1,6.6,3.1,7.9l2,0.9c-1.6,3.7-5.2,6.1-9.2,6.1c-1.4,0-2.7-0.3-4-0.8c-2.5-1.1-4.4-3-5.4-5.5
	s-1-5.2,0.1-7.7c2.1-4.8,3.7-9.7,4.9-14.7l2.6,0.3c0.2,0,0.5,0,0.7,0c3,0,5.6-2.3,6-5.3c0.4-3.3-2-6.3-5.3-6.7l-1.8-0.2
	C46.6,520.1,50.9,516.3,56,516.3L56,516.3z"/>
<path class="st0" d="M36.1,474.1c4.8,0,9.3-1.5,13.2-4.4c4.7-3.5,7.8-8.7,8.7-14.5s-0.6-11.7-4.1-16.4c-6-8.1-13-15.4-20.7-21.8
	c-0.2-0.2-0.4-0.3-0.6-0.5c0,0-0.1,0-0.1-0.1c-1.5-1.2-3.1-2.5-4.7-3.7c-3.8-2.9-8.4-4.4-13.2-4.4c-6.9,0-13.6,3.3-17.7,8.9
	c-7.3,9.8-5.2,23.6,4.5,30.9c6.5,4.8,12.2,10.5,17,17C22.6,470.8,29.2,474.1,36.1,474.1L36.1,474.1z M8.6,438.6
	c-4.4-3.3-5.4-9.6-2.1-14c1.9-2.6,4.9-4,8.1-4c2.2,0,4.2,0.7,6,2l-1.3,1.7c-2,2.7-1.4,6.4,1.2,8.4c1.1,0.8,2.3,1.2,3.6,1.2
	c1.8,0,3.7-0.8,4.8-2.4l0.9-1.2c5.2,4.8,10,10.1,14.3,15.8c1.6,2.1,2.3,4.8,1.9,7.4c-0.4,2.7-1.8,5-3.9,6.6c-1.7,1.3-3.8,2-6,2
	c-3.2,0-6.1-1.5-8.1-4l1.5-1.1c2.7-2,3.2-5.8,1.2-8.4c-2-2.7-5.8-3.2-8.4-1.2l-2.1,1.6C16.7,445.1,12.8,441.7,8.6,438.6L8.6,438.6z"
	/>
<g class="st2">
	<path class="st3" d="M-41,284c30.9,0,60.9,6.1,89.1,18c27.3,11.5,51.8,28,72.8,49.1c21,21,37.5,45.5,49.1,72.8
		c11.9,28.2,18,58.2,18,89.1s-6.1,60.9-18,89.1c-11.5,27.3-28,51.8-49.1,72.8c-21,21-45.5,37.5-72.8,49.1
		c-28.2,11.9-58.2,18-89.1,18s-60.9-6.1-89.1-18c-27.3-11.5-51.8-28-72.8-49.1c-21-21-37.5-45.5-49.1-72.8
		c-11.9-28.2-18-58.2-18-89.1s6.1-60.9,18-89.1c11.5-27.3,28-51.8,49.1-72.8c21-21,45.5-37.5,72.8-49.1
		C-101.9,290.1-71.9,284-41,284 M-41,278c-129.8,0-235,105.2-235,235s105.2,235,235,235s235-105.2,235-235S88.8,278-41,278L-41,278z
		"/>
</g>
</svg>
