<?xml version="1.0" encoding="utf-8"?>
<!-- Generator: Adobe Illustrator 19.0.0, SVG Export Plug-In . SVG Version: 6.00 Build 0)  -->
<svg version="1.1" id="Layer_1" xmlns="http://www.w3.org/2000/svg" xmlns:xlink="http://www.w3.org/1999/xlink" x="0px" y="0px"
	 viewBox="-261 263 500 500" style="enable-background:new -261 263 500 500;" xml:space="preserve">
<style type="text/css">
	.st0{opacity:0.15;fill:#BFBFBF;enable-background:new    ;}
	.st1{opacity:0.2;fill:#BFBFBF;enable-background:new    ;}
	.st2{opacity:2.000000e-002;fill:#BFBFBF;enable-background:new    ;}
	.st3{opacity:0.6;fill:#BFBFBF;}
	.st4{font-family:'Tahoma';}
	.st5{font-size:80px;}
</style>
<path class="st0" d="M48.1,565.9c-2.6-2.6-6.6-2.6-9,0c-3,3-6.2,5.6-9.7,8.1l-6.5-11.2c14.9-11,24.6-28.5,24.6-48.2
	c0-33-26.8-59.8-59.8-59.8c-22.7,0-42.3,12.7-52.6,31.3l-11.9-4.9c3.4-6.5,7.8-12.6,13.2-18c2.6-2.6,2.6-6.6,0-9
	c-2.6-2.6-6.6-2.6-9,0c-16.2,16.2-25,37.6-25,60.4c0,3.5,2.9,6.4,6.4,6.4s6.4-2.9,6.4-6.4c0-7.4,1.1-14.7,3.3-21.6l11.9,4.9
	c-1.5,5.3-2.3,10.9-2.3,16.6c0,33,26.8,59.8,59.8,59.8c8.6,0,16.8-1.8,24.1-5.1l6.5,11.2c-3.8,1.8-7.8,3.2-11.8,4.3
	c-3.4,1-5.4,4.5-4.6,7.9c0.7,2.9,3.4,4.8,6.2,4.8c0.5,0,1.1-0.1,1.7-0.2c7.2-1.9,14.1-4.8,20.5-8.5l0,0c0,0,0.1,0,0.1-0.1
	c6.4-3.7,12.3-8.3,17.6-13.5C50.7,572.4,50.7,568.3,48.1,565.9z M-59.2,514.6c0-25.9,21.1-46.9,46.9-46.9s46.9,21.1,46.9,46.9
	c0,25.9-21.1,46.9-46.9,46.9S-59.2,540.4-59.2,514.6z"/>
<path class="st0" d="M41.7,610c-14.9,8.6-31.8,13.1-49.1,13.1c-3.5,0-6.4,2.9-6.4,6.4s2.9,6.4,6.4,6.4c19.5,0,38.7-5.1,55.5-14.9
	c3.1-1.8,4.1-5.6,2.3-8.7C48.7,609.4,44.7,608.3,41.7,610L41.7,610z"/>
<path class="st1" d="M-73.6,418.2c-34.3,19.8-55.5,56.6-55.5,96.2c0,3.5,2.9,6.4,6.4,6.4s6.4-2.9,6.4-6.4c0-34.9,18.8-67.6,49-85.1
	c3.1-1.8,4.1-5.6,2.3-8.7C-66.5,417.5-70.5,416.4-73.6,418.2z"/>
<path class="st0" d="M-114.6,417.8c-17,17-29.3,38.2-35.4,61.3c-1,3.4,1.1,6.9,4.6,7.9c0.5,0.1,1.1,0.2,1.7,0.2
	c2.9,0,5.4-1.9,6.2-4.8c5.6-21,16.7-40.1,32-55.5c2.6-2.6,2.6-6.6,0-9C-108.1,415.2-112.2,415.2-114.6,417.8z"/>
<circle class="st0" cx="-44.1" cy="642.9" r="6.4"/>
<circle class="st0" cx="-58.6" cy="390.6" r="6.4"/>
<circle class="st0" cx="81.7" cy="625.2" r="6.4"/>
<path class="st1" d="M-18,428c10.6,0,19.9-7.1,22.7-17.4C8,398,0.5,385.1-12,381.8c-2-0.5-4-0.9-6.1-0.9c-10.6,0-19.9,7.1-22.7,17.4
	c-3.3,12.6,4.1,25.4,16.6,28.7C-22.2,427.8-20,428-18,428z M-28.3,401.8c1.3-4.7,5.5-7.9,10.3-7.9c1,0,1.9,0.1,2.8,0.3
	c5.6,1.5,9,7.3,7.6,13.1c-1.3,4.7-5.5,7.9-10.3,7.9c-1,0-1.9-0.1-2.8-0.3C-26.5,413.3-29.9,407.5-28.3,401.8z"/>
<path class="st1" d="M-101.7,610.8c0.1,0.1,0.3,0.2,0.4,0.4c0,0,0,0,0.1,0c1.2,1,2.4,1.9,3.6,2.9c3,2.2,6.5,3.4,10.2,3.4
	c5.3,0,10.5-2.6,13.7-6.9c5.6-7.6,4-18.3-3.5-23.9c-5-3.7-9.5-8.2-13.2-13.2c-3.2-4.4-8.4-6.9-13.7-6.9c-3.7,0-7.2,1.2-10.2,3.4
	c-7.6,5.6-9.1,16.4-3.5,23.9C-113,600.1-107.7,605.9-101.7,610.8L-101.7,610.8z M-108.7,577.5c1.3-1,3-1.6,4.7-1.6
	c2.4,0,4.7,1.2,6.3,3.1l-1.2,0.9c-2.1,1.6-2.4,4.5-1,6.5c1,1.3,2.3,1.8,3.7,1.8c1,0,1.9-0.3,2.8-1l1.6-1.3c2.8,2.9,5.9,5.5,9,7.9
	c3.4,2.6,4.1,7.4,1.6,10.9c-1.5,2-3.8,3.1-6.3,3.1c-1.7,0-3.3-0.5-4.7-1.6l1-1.3c1.6-2.1,1.1-5-1-6.5c-2.1-1.6-5-1.1-6.5,1l-0.7,1
	c-4-3.7-7.8-7.9-11.1-12.2C-112.8,584.9-112.2,580-108.7,577.5L-108.7,577.5z"/>
<path class="st1" d="M74.5,579.9c3,1.3,6.1,1.9,9.3,1.9c9.4,0,17.9-5.5,21.6-14.1c0.9-1.9,1.6-3.9,2.3-5.9c0,0,0,0,0-0.1
	c0.1-0.2,0.2-0.5,0.2-0.7c3.7-10,6.3-20.4,7.4-31.1c0.6-5.1-0.4-10.1-3-14.5c-3.7-6.4-10.3-10.7-17.7-11.6c-1-0.1-1.8-0.2-2.8-0.2
	c-11.9,0-21.9,8.9-23.3,20.7c-1,8.5-3.2,16.8-6.6,24.7c-2.4,5.7-2.6,12.1-0.2,18C64.3,572.9,68.8,577.5,74.5,579.9L74.5,579.9z
	 M92.2,516.5c0.4,0,0.9,0,1.3,0.1c3.4,0.4,6.3,2.3,8,5.3c1.2,2,1.6,4.3,1.4,6.6c-0.9,7.6-2.4,15-4.7,22.2l-1.5-0.6
	c-3.3-1.4-7,0.1-8.4,3.3c-1.4,3.3,0.1,7,3.3,8.4l2.1,1c-1.7,3.9-5.5,6.5-9.8,6.5c-1.5,0-2.9-0.3-4.3-0.9c-2.7-1.2-4.7-3.2-5.7-5.9
	c-1.1-2.7-1.1-5.5,0.1-8.2c2.2-5.1,3.9-10.3,5.2-15.6L82,539c0.2,0,0.5,0,0.7,0c3.2,0,6-2.4,6.4-5.6c0.4-3.5-2.1-6.7-5.6-7.1
	l-1.9-0.2C82.2,520.6,86.8,516.5,92.2,516.5L92.2,516.5z"/>
<path class="st0" d="M71,471.6c5.1,0,9.9-1.6,14-4.7c5-3.7,8.3-9.3,9.3-15.4c1-6.2-0.6-12.4-4.4-17.4c-6.4-8.6-13.8-16.4-22-23.2
	c-0.2-0.2-0.4-0.3-0.6-0.5c0,0-0.1,0-0.1-0.1c-1.6-1.3-3.3-2.7-5-3.9c-4-3.1-8.9-4.7-14-4.7c-7.3,0-14.5,3.5-18.8,9.5
	c-7.8,10.4-5.5,25.1,4.8,32.9c6.9,5.1,13,11.2,18.1,18.1C56.7,468.1,63.7,471.6,71,471.6L71,471.6z M41.8,433.9
	c-4.7-3.5-5.7-10.2-2.2-14.9c2-2.8,5.2-4.3,8.6-4.3c2.3,0,4.5,0.7,6.4,2.1l-1.4,1.8c-2.1,2.9-1.5,6.8,1.3,8.9
	c1.2,0.9,2.4,1.3,3.8,1.3c1.9,0,3.9-0.9,5.1-2.6l1-1.3c5.5,5.1,10.6,10.7,15.2,16.8c1.7,2.2,2.4,5.1,2,7.9c-0.4,2.9-1.9,5.3-4.1,7
	c-1.8,1.4-4,2.1-6.4,2.1c-3.4,0-6.5-1.6-8.6-4.3l1.6-1.2c2.9-2.1,3.4-6.2,1.3-8.9c-2.1-2.9-6.2-3.4-8.9-1.3l-2.2,1.7
	C50.4,440.8,46.2,437.1,41.8,433.9L41.8,433.9z"/>
<path class="st1" d="M-11,269.4c32.9,0,64.8,6.5,94.8,19.1c29,12.2,55.1,29.8,77.4,52.2c22.3,22.3,39.9,48.4,52.2,77.4
	c12.7,30,19.1,61.9,19.1,94.8s-6.5,64.8-19.1,94.8c-12.2,29-29.8,55.1-52.2,77.4c-22.3,22.3-48.4,39.9-77.4,52.2
	c-30,12.7-61.9,19.1-94.8,19.1s-64.8-6.5-94.8-19.1c-29-12.2-55.1-29.8-77.4-52.2c-22.3-22.3-39.9-48.4-52.2-77.4
	c-12.7-30-19.1-61.9-19.1-94.8s6.5-64.8,19.1-94.8c12.2-29,29.8-55.1,52.2-77.4c22.3-22.3,48.4-39.9,77.4-52.2
	C-75.8,275.9-43.9,269.4-11,269.4 M-11,263c-138.1,0-250,111.9-250,250s111.9,250,250,250s250-111.9,250-250S127.1,263-11,263
	L-11,263z"/>
<path class="st2" d="M239,512.8c0,136.1-113.8,250-250,250s-250-113.9-250-250c0-132.4,107.8-244.8,240.2-249.6
	C119.1,258.1,239,372.5,239,512.8z"/>
<text transform="matrix(1 0 0 1 -33.8359 541.7832)" class="st3 st4 st5">0</text>
</svg>
